<svg width="241" height="160" viewBox="0 0 241 160" fill="none" xmlns="http://www.w3.org/2000/svg">
<path d="M175.861 159.001C169.21 157.96 162.816 157.074 156.677 156.344L159.041 151.616C158.221 151.343 154.665 154.077 154.665 154.077L157.674 140.402C153.574 140.949 151.657 154.902 151.657 154.902L147.007 150.252L149.296 155.516C133.15 153.769 116.917 152.952 100.677 153.068L102.7 149.022C101.88 148.749 98.324 151.483 98.324 151.483L101.332 137.808C97.232 138.355 95.315 152.308 95.315 152.308L90.665 147.658L93.089 153.234C83.7567 153.505 74.4444 154.255 65.189 155.481C67.208 149.192 74.258 143.146 74.258 143.146C68.837 144.833 66.017 147.58 64.558 150.127C64.2628 137.206 66.2506 124.334 70.43 112.104C70.43 112.104 59.49 136.719 61.13 153.129L61.338 156.044C56.514 156.721 51.7392 157.711 47.044 159.009L175.861 159.001Z" fill="#3F3D56"/>
<path d="M200.93 125.123C200.281 125.123 199.646 124.931 199.107 124.57C198.567 124.209 198.146 123.697 197.898 123.097C197.649 122.497 197.584 121.837 197.711 121.201C197.838 120.564 198.15 119.979 198.609 119.52C199.068 119.061 199.653 118.749 200.29 118.622C200.926 118.495 201.586 118.56 202.186 118.809C202.786 119.057 203.298 119.478 203.659 120.018C204.02 120.557 204.212 121.192 204.212 121.841C204.212 122.711 203.866 123.546 203.251 124.162C202.635 124.777 201.8 125.123 200.93 125.123ZM200.93 119.106C200.389 119.106 199.86 119.266 199.411 119.567C198.961 119.867 198.61 120.295 198.403 120.794C198.196 121.294 198.142 121.844 198.248 122.375C198.353 122.905 198.614 123.392 198.996 123.775C199.379 124.157 199.866 124.418 200.396 124.523C200.927 124.629 201.477 124.575 201.977 124.368C202.476 124.161 202.904 123.81 203.204 123.361C203.505 122.911 203.665 122.382 203.665 121.841C203.665 121.482 203.594 121.126 203.457 120.794C203.319 120.463 203.118 120.161 202.864 119.907C202.61 119.653 202.308 119.452 201.977 119.314C201.645 119.177 201.289 119.106 200.93 119.106Z" fill="#3F3D56"/>
<path d="M227.143 158.57H221.743V153.17H227.143V158.57ZM222.159 158.155H226.728V153.586H222.159V158.155Z" fill="#3F3D56"/>
<path d="M44.347 158.865L40.664 154.917L44.612 151.234L48.295 155.182L44.347 158.865ZM41.247 154.937L44.363 158.278L47.704 155.162L44.588 151.821L41.247 154.937Z" fill="#3F3D56"/>
<path d="M240.544 158.265H5.927V158.812H240.544V158.265Z" fill="#3F3D56"/>
<path d="M151.374 36.584V54.548C151.373 54.7139 151.307 54.8728 151.19 54.9901C151.073 55.1073 150.914 55.1735 150.748 55.174H150.302V148.752C150.302 150.034 150.049 151.304 149.559 152.489C149.068 153.673 148.349 154.75 147.442 155.656C146.536 156.563 145.459 157.282 144.275 157.773C143.09 158.263 141.82 158.516 140.538 158.516H82.068C80.7861 158.516 79.5167 158.263 78.3323 157.773C77.148 157.282 76.0719 156.563 75.1655 155.656C74.2591 154.749 73.5402 153.673 73.0497 152.489C72.5592 151.304 72.3069 150.035 72.307 148.753V58.453H71.984C71.867 58.4533 71.7546 58.4071 71.6715 58.3246C71.5885 58.2421 71.5415 58.1301 71.541 58.013V47.792C71.541 47.6745 71.5877 47.5618 71.6708 47.4788C71.7539 47.3957 71.8665 47.349 71.984 47.349H72.307V43.498H71.982C71.8591 43.4975 71.7415 43.4482 71.6548 43.361C71.5682 43.2739 71.5198 43.1559 71.52 43.033V32.949C71.5203 32.8266 71.5691 32.7092 71.6556 32.6226C71.7422 32.536 71.8596 32.4873 71.982 32.487H72.308V27.23H71.974C71.8653 27.23 71.761 27.1868 71.6841 27.1099C71.6072 27.033 71.564 26.9287 71.564 26.82V21.32C71.5638 21.2109 71.6068 21.1062 71.6836 21.0287C71.7605 20.9513 71.8649 20.9075 71.974 20.907H72.305V9.761C72.3053 7.1723 73.3338 4.68971 75.1642 2.85922C76.9947 1.02874 79.4773 0.000265167 82.066 0H140.538C143.127 -1.22208e-07 145.61 1.02829 147.441 2.85875C149.272 4.68921 150.301 7.17195 150.302 9.761V35.961H150.748C150.913 35.9615 151.072 36.0272 151.189 36.1439C151.306 36.2605 151.373 36.4187 151.374 36.584Z" fill="#3F3D56"/>
<path d="M113.711 5.00699H105.031C104.42 5.00699 103.925 5.50216 103.925 6.11299C103.925 6.72382 104.42 7.21899 105.031 7.21899H113.711C114.322 7.21899 114.817 6.72382 114.817 6.11299C114.817 5.50216 114.322 5.00699 113.711 5.00699Z" fill="#E6E8EC"/>
<path d="M117.717 7.366C118.41 7.366 118.971 6.80457 118.971 6.112C118.971 5.41944 118.41 4.858 117.717 4.858C117.024 4.858 116.463 5.41944 116.463 6.112C116.463 6.80457 117.024 7.366 117.717 7.366Z" fill="#E6E8EC"/>
<path d="M145.629 11.693V149.562C145.628 151.205 144.975 152.779 143.813 153.941C142.652 155.102 141.076 155.754 139.434 155.754H83.462C82.4658 155.755 81.4843 155.515 80.601 155.054C80.394 154.948 80.1936 154.829 80.001 154.698C79.1598 154.13 78.4708 153.365 77.9945 152.469C77.5182 151.573 77.269 150.574 77.269 149.559V11.693C77.2703 10.0495 77.9241 8.47382 79.0867 7.31218C80.2493 6.15054 81.8255 5.49802 83.469 5.49802H91.846V6.57301C91.846 7.92562 92.3833 9.22283 93.3398 10.1793C94.2962 11.1357 95.5934 11.673 96.946 11.673H125.407C126.76 11.673 128.057 11.1357 129.013 10.1793C129.97 9.22283 130.507 7.92562 130.507 6.57301V5.49802H139.434C140.248 5.49775 141.053 5.65781 141.805 5.96904C142.557 6.28028 143.24 6.73659 143.815 7.31191C144.39 7.88722 144.847 8.57025 145.158 9.32198C145.469 10.0737 145.629 10.8794 145.629 11.693Z" fill="#67BEE6"/>
<path opacity="0.3" d="M145.629 129.826V149.562C145.628 151.204 144.975 152.779 143.813 153.941C142.652 155.102 141.076 155.754 139.434 155.754H83.462C82.4658 155.755 81.4843 155.515 80.601 155.054C80.394 154.947 80.1936 154.829 80.001 154.698C79.1598 154.13 78.4708 153.365 77.9945 152.469C77.5182 151.573 77.269 150.574 77.269 149.559V129.834C86.6546 121.397 98.8284 116.729 111.448 116.728C124.069 116.726 136.243 121.392 145.631 129.826H145.629Z" fill="white"/>
<path opacity="0.3" d="M142.3 155.051C141.416 155.514 140.432 155.755 139.434 155.751H83.462C82.4658 155.752 81.4843 155.512 80.601 155.051C83.1352 148.957 87.4177 143.75 92.9081 140.087C98.3985 136.423 104.851 134.469 111.451 134.469C118.051 134.469 124.504 136.423 129.994 140.087C135.484 143.75 139.767 148.957 142.301 155.051H142.3Z" fill="white"/>
<path opacity="0.3" d="M130.118 155.382C129.583 155.663 128.987 155.809 128.383 155.807H94.513C93.9104 155.808 93.3165 155.663 92.782 155.385C94.3156 151.697 96.9071 148.546 100.229 146.33C103.552 144.113 107.456 142.931 111.45 142.931C115.444 142.931 119.348 144.113 122.671 146.33C125.993 148.546 128.584 151.697 130.118 155.385V155.382Z" fill="white"/>
<path d="M125.687 58.872C120.072 58.872 113.911 57.803 109.1 54.195C102.4 49.172 94.151 49.44 88.409 50.55C84.5941 51.2944 80.8913 52.529 77.393 54.223L77.14 53.738C80.681 52.0235 84.4287 50.7738 88.29 50.02C94.145 48.887 102.566 48.62 109.428 53.762C122.282 63.403 145.3 54.744 145.528 54.656L145.728 55.167C141.412 56.7055 136.948 57.7923 132.407 58.41C130.18 58.7121 127.935 58.8665 125.687 58.872Z" fill="white"/>
<path opacity="0.3" d="M77.264 53.979C77.264 53.979 96.136 49.408 109.264 55.666C122.392 61.924 145.64 55.62 145.64 55.62" fill="white"/>
<path opacity="0.3" d="M95.08 61.076C92.8003 61.0658 90.5267 60.8388 88.29 60.398C84.4287 59.6442 80.681 58.3945 77.14 56.68L77.393 56.195C80.8912 57.8875 84.5936 59.1208 88.408 59.864C94.15 60.973 102.402 61.242 109.099 56.219C115.955 51.077 125.558 51.092 132.405 52.009C136.946 52.6267 141.41 53.7134 145.726 55.252L145.526 55.763C145.295 55.674 122.278 47.016 109.426 56.657C105.256 59.6588 100.217 61.211 95.08 61.076Z" fill="white"/>
<path opacity="0.3" d="M95.174 58.874C89.0169 58.7655 82.9244 57.5985 77.163 55.424L77.371 54.918C77.558 54.995 96.271 62.549 109.125 54.936C122.205 47.19 145.475 54.104 145.708 54.175L145.549 54.698C145.318 54.628 122.276 47.784 109.403 55.406C105.056 57.8139 100.142 59.0116 95.174 58.874Z" fill="white"/>
<path opacity="0.3" d="M77.267 54.75C77.267 54.75 96.136 61.008 109.267 54.75C122.398 48.492 145.632 54.159 145.632 54.159" fill="white"/>
<path d="M150.499 71.493V79.468C150.499 79.468 151.137 88.398 154.645 92.868C154.645 92.868 160.386 101.001 161.183 99.247L160.201 93.472L156.877 90.317L155.123 80.43L154.645 71.5L150.499 71.493Z" fill="#FFB8B8"/>
<path d="M185.741 143.572V149.472L180.957 151.226V144.369L185.741 143.572Z" fill="#FFB8B8"/>
<path d="M176.014 142.934L179.203 150.11L174.738 152.024L173.781 145.008L176.014 142.934Z" fill="#FFB8B8"/>
<path d="M183.987 87.918C183.987 87.918 190.366 145.485 187.974 145.645C185.582 145.805 180.957 148.834 180.957 146.761C180.957 144.688 177.289 117.738 177.289 117.738L173.781 103.864V123L177.449 144.687C177.449 144.687 173.941 149.312 171.389 146.601L165.967 125.392C165.967 125.392 158.791 93.18 159.11 90.628C159.111 90.629 175.534 76.596 183.987 87.918Z" fill="#2F2E41"/>
<path d="M182.712 149.791C182.712 149.791 183.988 147.08 186.858 148.834L189.25 151.704C189.25 151.704 195.417 156.811 191.041 157.904C186.531 159.032 183.828 157.832 183.828 157.832C183.39 157.57 182.901 157.406 182.393 157.354C181.547 157.152 180.807 156.64 180.32 155.919C180.32 155.6 180.798 149.949 180.798 149.949C180.979 149.861 181.181 149.829 181.38 149.858C181.579 149.886 181.765 149.973 181.914 150.108C182.393 150.588 182.712 149.791 182.712 149.791Z" fill="#2F2E41"/>
<path d="M173.302 148.834C173.302 148.834 176.332 146.442 177.767 149.153C177.767 149.153 178.667 149.472 178.777 149.153C178.887 148.834 179.677 148.675 179.677 150.429C179.677 152.183 180.543 156.558 179.746 156.718C178.949 156.878 178.151 157.356 178.311 157.994C178.471 158.632 177.445 158.722 173.777 158.562C170.109 158.402 169.95 156.967 169.95 156.967C169.949 155.833 170.282 154.724 170.907 153.778C171.879 152.22 172.681 150.562 173.302 148.834Z" fill="#2F2E41"/>
<path d="M167.403 44.384C167.403 44.384 166.603 50.284 171.709 52.357C176.815 54.43 160.387 61.287 158.792 57.3C157.197 53.313 159.111 52.038 159.111 52.038C159.111 52.038 160.706 50.443 159.27 46.138L167.403 44.384Z" fill="#FFB8B8"/>
<path d="M162.3 48.531C166.175 48.531 169.317 45.3894 169.317 41.514C169.317 37.6386 166.175 34.497 162.3 34.497C158.425 34.497 155.283 37.6386 155.283 41.514C155.283 45.3894 158.425 48.531 162.3 48.531Z" fill="#FFB8B8"/>
<path d="M170.433 54.271C170.433 54.271 165.649 56.823 161.024 54.909C156.399 52.995 156.559 61.288 156.559 61.288L158.951 67.507L175.536 65.916L174.42 56.348L170.433 54.271Z" fill="#F2F2F2"/>
<path d="M168.056 48.811C168.905 48.9911 169.704 49.36 170.391 49.8904C171.079 50.4208 171.638 51.0991 172.028 51.875L179.682 54.267L181.596 56.978L179.363 76.592C179.363 76.592 183.509 80.579 183.509 82.811C183.509 85.043 188.609 92.698 186.061 91.741C183.513 90.784 178.885 87.435 178.885 87.435C178.885 87.435 167.244 87.913 163.576 91.103C159.908 94.293 158.476 93.336 158.476 93.336C158.476 93.336 154.649 76.751 154.489 74.2C154.329 71.649 149.864 56.34 149.864 56.34L157.837 51.875L159.868 49.575L165.492 58.575L170.592 52.356C170.592 52.356 168.074 50.375 168.056 48.811Z" fill="#3F3D56"/>
<path d="M183.987 69.261L184.944 74.361C184.944 74.361 189.25 90.308 188.612 95.73C188.612 95.73 189.09 107.849 186.379 106.414C183.668 104.979 185.103 96.208 185.103 96.208L181.276 80.421L179.203 71.172L183.987 69.261Z" fill="#FFB8B8"/>
<path d="M180 56.025L181.595 56.982C181.595 56.982 187.655 69.582 186.22 70.537C184.785 71.492 178.566 73.567 178.566 73.567L180 56.025Z" fill="#3F3D56"/>
<path d="M153.688 56.346L149.94 56.266L149.063 57.781L150.179 73.249L155.92 74.525L153.688 56.346Z" fill="#3F3D56"/>
<path d="M168.013 35.58L169.278 35.12C167.565 33.5227 165.297 32.6566 162.955 32.706L163.99 31.671C163.126 31.4333 162.213 31.4478 161.357 31.7127C160.501 31.9777 159.739 32.4819 159.161 33.166C157.803 34.4796 156.632 35.9744 155.682 37.608H154.328L154.893 38.739L152.914 39.87L154.945 39.67C154.753 40.646 154.819 41.6554 155.137 42.598L155.597 43.863C156.295 42.5228 156.91 41.1405 157.437 39.724V40.874C157.437 40.874 158.702 39.839 158.702 39.149L159.392 39.949L159.737 38.684L163.991 39.949L163.301 38.914L165.945 39.259L164.91 37.994C164.91 37.994 167.899 39.489 168.01 40.753C168.169 41.7621 168.472 42.7431 168.91 43.666L169.867 42.55C169.867 42.55 171.347 37.307 168.013 35.58Z" fill="#2F2E41"/>
<path d="M168.2 43.028C168.508 43.028 168.758 42.3855 168.758 41.593C168.758 40.8005 168.508 40.158 168.2 40.158C167.892 40.158 167.642 40.8005 167.642 41.593C167.642 42.3855 167.892 43.028 168.2 43.028Z" fill="#FFB8B8"/>
<path d="M11.387 149.61C14.787 155.91 22.001 158.62 22.001 158.62C22.001 158.62 23.701 151.105 20.301 144.802C16.901 138.499 9.68801 135.792 9.68801 135.792C9.68801 135.792 7.98701 143.306 11.387 149.61Z" fill="#3F3D56"/>
<path d="M13.723 147.535C19.86 151.227 22.223 158.561 22.223 158.561C22.223 158.561 14.637 159.908 8.5 156.216C2.363 152.524 0 145.19 0 145.19C0 145.19 7.58601 143.843 13.723 147.535Z" fill="#67BEE6"/>
<path opacity="0.3" d="M77.267 53.976C77.267 53.976 96.136 44.13 109.267 53.976C122.398 63.822 145.632 54.906 145.632 54.906" fill="white"/>
<path d="M111.521 154.167C113.183 154.167 114.53 152.82 114.53 151.158C114.53 149.496 113.183 148.149 111.521 148.149C109.859 148.149 108.512 149.496 108.512 151.158C108.512 152.82 109.859 154.167 111.521 154.167Z" fill="white"/>
</svg>
